<?xml version="1.0" encoding="UTF-8" standalone="no"?>
<!DOCTYPE svg PUBLIC "-//W3C//DTD SVG 1.1//EN" "http://www.w3.org/Graphics/SVG/1.1/DTD/svg11.dtd">
<svg width="100%" height="100%" viewBox="0 0 3555 644" version="1.1" xmlns="http://www.w3.org/2000/svg" xmlns:xlink="http://www.w3.org/1999/xlink" xml:space="preserve" xmlns:serif="http://www.serif.com/" style="fill-rule:evenodd;clip-rule:evenodd;stroke-linejoin:round;stroke-miterlimit:2;">
    <g transform="matrix(8.33333,0,0,8.33333,108.958,432.008)">
        <path d="M0.002,-0.732L0.003,-0.732L0.002,-0.732ZM0.007,-0.73L0.008,-0.73L0.007,-0.73ZM16.224,4.563C15.799,4.563 15.376,4.384 15.08,4.034C13.753,2.471 8.536,-1.855 7.155,-2.282C6.161,-2.021 3.002,0.108 1.791,0.924C-0.032,2.152 -0.359,2.375 -1.169,2.03C-1.931,1.704 -2.285,0.823 -1.959,0.061C-1.792,-0.33 -1.479,-0.612 -1.112,-0.752C-0.892,-0.885 -0.36,-1.244 0.114,-1.564C3.867,-4.093 5.88,-5.296 7.169,-5.296C9.786,-5.296 16.668,1.27 17.367,2.093C17.903,2.725 17.825,3.671 17.194,4.207C16.912,4.446 16.567,4.563 16.224,4.563" style="fill:rgb(112,20,232);fill-rule:nonzero;"/>
    </g>
    <g transform="matrix(8.33333,0,0,8.33333,72.8708,485.447)">
        <path d="M0,7.331C13.902,14.972 34.575,16.366 50.863,-1.303L52.202,-4.687L53.26,-8.289L53.26,-9.035C32.957,13.671 7.606,7.439 -4.538,0.716L-3.473,2.737L0,7.331Z" style="fill:rgb(23,57,142);fill-rule:nonzero;"/>
    </g>
    <g transform="matrix(0,70.0236,70.0236,0,746.574,458.752)">
        <path d="M0.14,-0.38C0.233,-0.481 0.354,-0.531 0.503,-0.531C0.651,-0.531 0.77,-0.481 0.862,-0.382C0.954,-0.282 1,-0.155 1,-0.002C1,0.154 0.954,0.282 0.862,0.382C0.77,0.481 0.651,0.531 0.503,0.531C0.354,0.531 0.233,0.481 0.14,0.38C0.047,0.279 0,0.152 0,-0.002C0,-0.153 0.047,-0.279 0.14,-0.38Z" style="fill:url(#_Linear1);fill-rule:nonzero;"/>
    </g>
    <g transform="matrix(0,331.034,331.034,0,980.196,195.243)">
        <path d="M0,0.201L0.659,0.201L0,-0.201L0,-0.407L1,-0.407L1,-0.201L0.342,-0.201L1,0.201L1,0.407L0,0.407L0,0.201Z" style="fill:url(#_Linear2);fill-rule:nonzero;"/>
    </g>
    <g transform="matrix(0,331.034,331.034,0,1285.3,195.243)">
        <path d="M0,-0.335L1,-0.335L1,0.335L0.834,0.335L0.834,-0.129L0.567,-0.129L0.567,0.266L0.405,0.266L0.405,-0.129L0.167,-0.129L0.167,0.334L0,0.334L0,-0.335Z" style="fill:url(#_Linear3);fill-rule:nonzero;"/>
    </g>
    <g transform="matrix(0,331.034,331.034,0,1555.17,195.243)">
        <path d="M0,-0.407L0.167,-0.407L0.167,-0.105L1,-0.105L1,0.101L0.167,0.101L0.167,0.407L0,0.407L0,-0.407Z" style="fill:url(#_Linear4);fill-rule:nonzero;"/>
    </g>
    <g transform="matrix(0,331.034,331.034,0,1940.78,195.243)">
        <path d="M0,-0.387L0.108,-0.387L0.108,-0.066L1,-0.066L1,0.065L0.108,0.065L0.108,0.387L0,0.387L0,-0.387Z" style="fill:url(#_Linear5);fill-rule:nonzero;"/>
    </g>
    <g transform="matrix(0,349.223,349.223,0,2208.03,177.055)">
        <path d="M0,-0.277L1,-0.277L1,-0.157L0.498,-0.157C0.464,-0.14 0.437,-0.117 0.416,-0.088C0.395,-0.058 0.385,-0.024 0.385,0.015C0.385,0.063 0.397,0.099 0.421,0.122C0.446,0.145 0.483,0.156 0.534,0.157L1,0.157L1,0.277L0.534,0.277C0.367,0.276 0.283,0.201 0.283,0.052C0.283,-0.034 0.315,-0.103 0.381,-0.157L0,-0.157L0,-0.277Z" style="fill:url(#_Linear6);fill-rule:nonzero;"/>
    </g>
    <g transform="matrix(0,255.098,255.098,0,2462.21,275.728)">
        <path d="M0.039,-0.188C0.065,-0.247 0.101,-0.293 0.146,-0.327C0.191,-0.361 0.237,-0.378 0.285,-0.378L0.285,-0.213C0.243,-0.213 0.207,-0.193 0.177,-0.153C0.148,-0.113 0.133,-0.064 0.133,-0.005C0.133,0.062 0.15,0.113 0.184,0.148C0.218,0.182 0.264,0.199 0.322,0.199L0.398,0.199L0.398,0.039C0.398,-0.1 0.425,-0.207 0.481,-0.283C0.536,-0.36 0.614,-0.398 0.715,-0.398C0.797,-0.398 0.866,-0.367 0.919,-0.307C0.973,-0.246 1,-0.168 1,-0.073C1,0.034 0.96,0.125 0.881,0.202C0.929,0.208 0.963,0.216 0.982,0.225L0.982,0.398L0.968,0.398C0.916,0.375 0.845,0.364 0.757,0.364L0.313,0.364C0.215,0.362 0.139,0.329 0.083,0.266C0.028,0.203 0,0.116 0,0.005C0,-0.065 0.013,-0.13 0.039,-0.188ZM0.813,-0.181C0.784,-0.216 0.743,-0.233 0.692,-0.233C0.573,-0.233 0.514,-0.132 0.514,0.07L0.514,0.199L0.712,0.199C0.755,0.178 0.79,0.145 0.816,0.099C0.843,0.052 0.857,0.003 0.857,-0.049C0.857,-0.103 0.842,-0.147 0.813,-0.181Z" style="fill:url(#_Linear7);fill-rule:nonzero;"/>
    </g>
    <g transform="matrix(0,335.579,335.579,0,2646.14,190.698)">
        <path d="M0.021,-0.056C0.035,-0.068 0.052,-0.074 0.072,-0.074C0.093,-0.074 0.11,-0.068 0.123,-0.056C0.137,-0.043 0.144,-0.025 0.144,-0C0.144,0.024 0.137,0.043 0.123,0.055C0.11,0.068 0.093,0.074 0.072,0.074C0.052,0.074 0.035,0.068 0.021,0.055C0.007,0.043 -0,0.024 -0,-0C-0,-0.025 0.007,-0.043 0.021,-0.056ZM1,-0.064L1,0.061L0.267,0.061L0.267,-0.064L1,-0.064Z" style="fill:url(#_Linear8);fill-rule:nonzero;"/>
    </g>
    <g transform="matrix(349.223,0,0,-349.223,2584.08,351.67)">
        <rect x="0.44" y="-0.5" width="0.12" height="1" style="fill:url(#_Linear9);"/>
    </g>
    <g transform="matrix(0,255.098,255.098,0,2941.49,275.728)">
        <path d="M0.039,-0.188C0.065,-0.247 0.101,-0.293 0.146,-0.327C0.191,-0.361 0.237,-0.378 0.285,-0.378L0.285,-0.213C0.243,-0.213 0.207,-0.193 0.177,-0.153C0.148,-0.113 0.133,-0.064 0.133,-0.005C0.133,0.062 0.15,0.113 0.184,0.148C0.218,0.182 0.264,0.199 0.322,0.199L0.398,0.199L0.398,0.039C0.398,-0.1 0.425,-0.207 0.481,-0.283C0.536,-0.36 0.614,-0.398 0.715,-0.398C0.797,-0.398 0.866,-0.367 0.919,-0.307C0.973,-0.246 1,-0.168 1,-0.073C1,0.034 0.96,0.125 0.881,0.202C0.929,0.208 0.963,0.216 0.982,0.225L0.982,0.398L0.968,0.398C0.916,0.375 0.845,0.364 0.757,0.364L0.313,0.364C0.215,0.362 0.139,0.329 0.083,0.266C0.028,0.203 0,0.116 0,0.005C0,-0.065 0.013,-0.13 0.039,-0.188ZM0.813,-0.181C0.784,-0.216 0.743,-0.233 0.692,-0.233C0.573,-0.233 0.514,-0.132 0.514,0.07L0.514,0.199L0.712,0.199C0.755,0.178 0.79,0.145 0.816,0.098C0.843,0.052 0.857,0.003 0.857,-0.049C0.857,-0.103 0.842,-0.147 0.813,-0.181Z" style="fill:url(#_Linear10);fill-rule:nonzero;"/>
    </g>
    <g transform="matrix(0,250.549,250.549,0,3197.04,275.728)">
        <path d="M0.142,-0.222L0.018,-0.227L0.018,-0.386L1,-0.386L1,-0.218L0.3,-0.218C0.253,-0.195 0.215,-0.163 0.186,-0.122C0.157,-0.081 0.142,-0.033 0.142,0.021C0.142,0.089 0.159,0.138 0.193,0.17C0.227,0.201 0.279,0.218 0.35,0.218L1,0.218L1,0.386L0.351,0.386C0.117,0.384 0,0.28 0,0.072C0,-0.049 0.047,-0.147 0.142,-0.222Z" style="fill:url(#_Linear11);fill-rule:nonzero;"/>
    </g>
    <g transform="matrix(0,353.772,353.772,0,3450.77,177.055)">
        <path d="M0,0.174L0.362,0.174C0.307,0.127 0.279,0.062 0.279,-0.019C0.279,-0.101 0.311,-0.167 0.376,-0.218C0.441,-0.268 0.527,-0.293 0.634,-0.293L0.643,-0.293C0.749,-0.293 0.835,-0.268 0.901,-0.217C0.967,-0.166 1,-0.101 1,-0.02C1,0.065 0.971,0.131 0.913,0.178L0.987,0.184L0.987,0.293L0,0.293L0,0.174ZM0.832,-0.126C0.788,-0.158 0.726,-0.174 0.647,-0.174C0.559,-0.174 0.492,-0.158 0.447,-0.126C0.402,-0.093 0.38,-0.048 0.38,0.011C0.38,0.084 0.413,0.139 0.478,0.174L0.798,0.174C0.865,0.14 0.899,0.085 0.899,0.009C0.899,-0.048 0.877,-0.093 0.832,-0.126Z" style="fill:url(#_Linear12);fill-rule:nonzero;"/>
    </g>
    <g transform="matrix(-8.33333,0,0,8.33333,110.786,393.115)">
        <path d="M0,-6.41C1.157,-6.41 2.063,-5.002 2.063,-3.205C2.063,-1.408 1.157,0 0,0C-1.157,0 -2.063,-1.408 -2.063,-3.205C-2.063,-5.002 -1.157,-6.41 0,-6.41" style="fill:rgb(112,20,232);fill-rule:nonzero;"/>
    </g>
    <g transform="matrix(-8.33333,0,0,8.33333,293.529,403.165)">
        <path d="M0,-6.41C1.157,-6.41 2.063,-5.002 2.063,-3.205C2.063,-1.408 1.157,0 0,0C-1.157,0 -2.063,-1.408 -2.063,-3.205C-2.063,-5.002 -1.157,-6.41 0,-6.41" style="fill:rgb(112,20,232);fill-rule:nonzero;"/>
    </g>
    <g transform="matrix(8.33333,0,0,8.33333,36.4125,366.525)">
        <rect x="0" y="0" width="0.001" height="0.001" style="fill:rgb(92,45,145);"/>
    </g>
    <g transform="matrix(8.33333,0,0,8.33333,167.776,600.342)">
        <path d="M0,-9.432C2.104,-8.96 5.851,-8.654 7.513,-8.773C7.839,-8.797 8.117,-8.542 8.117,-8.215L8.117,-0.495C8.117,-0.174 7.848,0.082 7.526,0.064C6.119,-0.015 2.504,-0.274 0.105,-0.968C-0.121,-1.034 -0.277,-1.239 -0.29,-1.474L-0.685,-8.856C-0.705,-9.229 -0.364,-9.514 0,-9.432" style="fill:rgb(112,20,232);fill-rule:nonzero;"/>
    </g>
    <g transform="matrix(8.33333,0,0,8.33333,263.736,352.598)">
        <path d="M0,-26.088C-1.802,-26.088 -2.952,-26.94 -2.952,-27.526C-2.952,-27.9 -2.481,-28.379 -1.677,-28.679C-0.749,-27.226 0.781,-27.304 1.769,-28.08L1.769,-28.644C2.517,-28.342 2.952,-27.885 2.952,-27.526C2.952,-26.94 1.802,-26.088 0,-26.088M-1.455,-35.828C-1.667,-36.573 -1.595,-37.424 -1.25,-38.226C-0.907,-39.027 -0.339,-39.666 0.348,-40.025C0.71,-40.214 1.079,-40.31 1.432,-40.31C1.682,-40.31 1.924,-40.261 2.149,-40.165C3.343,-39.651 3.763,-37.947 3.083,-36.364C2.403,-34.782 0.877,-33.912 -0.316,-34.425C-0.859,-34.658 -1.263,-35.156 -1.455,-35.828M28.349,16.389C31.234,10.14 32.302,3.559 32.317,-1.178C32.337,-7.372 30.083,-16.271 23.699,-22.671C18.347,-28.036 10.972,-30.859 1.776,-31.064L1.769,-31.064L1.769,-32.525C3.083,-32.981 4.271,-34.064 4.921,-35.575C6.036,-38.171 5.146,-41.054 2.938,-42.003C1.833,-42.477 0.583,-42.403 -0.579,-41.797C-1.672,-41.226 -2.563,-40.238 -3.088,-39.015C-3.614,-37.792 -3.716,-36.465 -3.378,-35.279C-3.019,-34.018 -2.211,-33.063 -1.105,-32.588C-1.048,-32.563 -0.988,-32.554 -0.93,-32.533L-1.267,-31.037L-2.629,-30.939C-13.562,-29.986 -20.016,-24.41 -23.504,-19.901C-27.762,-14.397 -28.973,-8.949 -29.022,-8.72C-29.129,-8.222 -28.87,-7.71 -28.404,-7.503C-28.073,-7.356 -27.74,-7.213 -27.408,-7.071C-28.721,-2.884 -28.454,2.062 -28.44,2.287C-28.409,2.818 -27.968,3.228 -27.443,3.228C-27.423,3.228 -27.403,3.228 -27.383,3.226C-26.832,3.194 -26.411,2.721 -26.444,2.17C-26.447,2.119 -26.696,-2.504 -25.546,-6.316C-14.19,-1.912 -1.51,-1.104 20.182,-9.506C21.138,-6.208 21.939,-0.247 21.574,2.571L27.24,3.841C27.768,-9.368 24.618,-12.52 24.257,-12.836C23.943,-13.109 23.512,-13.18 23.128,-13.02C-1.53,-2.745 -14.684,-3.983 -26.679,-9.111C-26.193,-10.738 -24.789,-14.718 -21.765,-18.614C-17.508,-24.098 -11.768,-27.42 -4.739,-28.506C-4.869,-28.196 -4.952,-27.87 -4.952,-27.526C-4.952,-25.598 -2.777,-24.088 0,-24.088C2.777,-24.088 4.952,-25.598 4.952,-27.526C4.952,-27.946 4.838,-28.343 4.647,-28.711C11.901,-28.046 17.801,-25.52 22.167,-21.144C28.084,-15.213 30.173,-6.944 30.154,-1.185C30.146,1.513 29.777,4.846 28.89,8.36L28.349,16.389Z" style="fill:rgb(112,20,232);fill-rule:nonzero;"/>
    </g>
    <g transform="matrix(0,-84.6155,-84.6155,0,210.268,270.674)">
        <path d="M0.991,-0.023L0.762,0.242L0.738,0.252L0.026,0.159C0.011,0.157 0.002,0.144 0,0.129C-0.001,0.115 0.004,0.099 0.018,0.092L0.675,-0.252L0.701,-0.251L0.984,-0.08C0.993,-0.075 0.998,-0.065 1,-0.054C1,-0.052 1,-0.051 1,-0.049C1,-0.04 0.997,-0.031 0.991,-0.023Z" style="fill:url(#_Linear13);fill-rule:nonzero;"/>
    </g>
    <g transform="matrix(0,-50.9748,-50.9748,0,174.089,267.763)">
        <path d="M0.984,-0.047L0.713,0.248C0.697,0.265 0.674,0.27 0.656,0.257L0.025,-0.156C0.01,-0.166 0.003,-0.181 0,-0.197C-0.004,-0.232 0.019,-0.271 0.056,-0.266L0.956,-0.148C0.98,-0.144 0.996,-0.122 0.999,-0.097C1,-0.095 1,-0.092 1,-0.089C1,-0.074 0.995,-0.059 0.984,-0.047Z" style="fill:url(#_Linear14);fill-rule:nonzero;"/>
    </g>
    <g transform="matrix(0,-47.475,-47.475,0,230.747,271.575)">
        <path d="M0.967,-0.084L0.075,0.384C0.038,0.402 0.005,0.372 0.001,0.334C-0.002,0.317 0.003,0.299 0.015,0.283L0.555,-0.384C0.57,-0.403 0.594,-0.409 0.615,-0.397L0.971,-0.198C0.988,-0.188 0.997,-0.171 0.999,-0.152C1,-0.149 1,-0.146 1,-0.143C1,-0.119 0.989,-0.095 0.967,-0.084Z" style="fill:url(#_Linear15);fill-rule:nonzero;"/>
    </g>
    <g transform="matrix(8.33333,0,0,8.33333,-846.417,-651.936)">
        <g>
            <g>
                <clipPath id="_clip16">
                    <path d="M122.129,146.852L121.977,144.298L128.709,144.829L128.862,147.383L122.129,146.852Z" clip-rule="nonzero"/>
                </clipPath>
                <g clip-path="url(#_clip16)">
                    <g transform="matrix(1,0,0,1,122.35,146.872)">
                        <path d="M0,-0.531L-0.172,-0.469L-0.236,-0.281L-0.157,-0.082L0.032,0L0.212,-0.053L0.276,-0.241L0.189,-0.441L0,-0.531Z" style="fill:white;fill-rule:nonzero;"/>
                    </g>
                    <g transform="matrix(1,0,0,1,124.759,146.909)">
                        <path d="M0,-2.391L-0.462,-2.427L-0.362,-0.759L-1.378,-2.499L-1.849,-2.537L-1.697,-0L-1.227,0.037L-1.326,-1.632L-0.319,0.109L0.152,0.146L0,-2.391Z" style="fill:white;fill-rule:nonzero;"/>
                    </g>
                    <g transform="matrix(1,0,0,1,126.692,147.087)">
                        <path d="M0,-2.417L-1.521,-2.537L-1.37,0L0.151,0.12L0.126,-0.302L-0.933,-0.385L-0.974,-1.068L-0.074,-0.997L-0.099,-1.401L-0.998,-1.472L-1.034,-2.079L0.025,-1.996L0,-2.417Z" style="fill:white;fill-rule:nonzero;"/>
                    </g>
                    <g transform="matrix(1,0,0,1,128.709,147.164)">
                        <path d="M0,-2.335L-1.849,-2.481L-1.824,-2.059L-1.143,-2.006L-1.017,0.109L-0.546,0.146L-0.672,-1.969L0.025,-1.914L0,-2.335Z" style="fill:white;fill-rule:nonzero;"/>
                    </g>
                </g>
            </g>
        </g>
    </g>
    <g transform="matrix(8.33333,0,0,8.33333,443.517,631.853)">
        <path d="M0,-30.94C-2.78,-28.399 -9.933,-22.084 -26,-21.946C-32.749,-21.909 -44.554,-23.089 -48.049,-31.763L-48.097,-31.851C-48.118,-31.886 -48.142,-31.917 -48.165,-31.945L-48.23,-32.025C-48.255,-32.051 -48.281,-32.075 -48.313,-32.101L-48.394,-32.167C-48.427,-32.19 -48.461,-32.21 -48.568,-32.266C-48.607,-32.284 -48.646,-32.297 -48.777,-32.337C-48.817,-32.345 -48.858,-32.351 -48.972,-32.362C-49.008,-32.363 -49.046,-32.362 -49.083,-32.359L-49.575,-32.208C-50.427,-31.692 -53.207,-29.86 -53.222,-27.897C-53.224,-22.19 -49.914,-13.419 -42.513,-6.688C-38.444,-2.987 -31.562,1.423 -21.881,1.423C-20.845,1.423 -19.785,1.372 -18.729,1.271C-5.095,-0.029 2.675,-8.241 6.775,-17.122L7.316,-25.151C4.655,-14.608 -2.671,-2.434 -18.935,-0.882C-29.391,0.111 -36.739,-4.36 -41.058,-8.288C-44.333,-11.267 -48.494,-16.654 -50.245,-22.639C-49.128,-21.544 -47.75,-20.475 -46.176,-19.486C-43.339,-17.705 -37.363,-14.657 -29.198,-14.253C-28.265,-14.206 -27.329,-14.183 -26.417,-14.183C-14.708,-14.183 -6.852,-17.985 -2.324,-21.176C2.989,-24.919 5.274,-28.741 5.54,-29.207C5.56,-29.245 5.577,-29.285 5.588,-29.314L5.624,-29.417L5.621,-29.418L5.666,-29.67" style="fill:rgb(180,0,44);fill-rule:nonzero;"/>
    </g>
    <defs>
        <linearGradient id="_Linear1" x1="0" y1="0" x2="1" y2="0" gradientUnits="userSpaceOnUse" gradientTransform="matrix(1,0,0,-1,0,2.09691e-05)"><stop offset="0" style="stop-color:rgb(112,20,232);stop-opacity:1"/><stop offset="0.99" style="stop-color:rgb(61,79,207);stop-opacity:1"/><stop offset="1" style="stop-color:rgb(61,79,207);stop-opacity:1"/></linearGradient>
        <linearGradient id="_Linear2" x1="0" y1="0" x2="1" y2="0" gradientUnits="userSpaceOnUse" gradientTransform="matrix(1,0,0,-1,0,-2.33913e-05)"><stop offset="0" style="stop-color:rgb(112,20,232);stop-opacity:1"/><stop offset="0.99" style="stop-color:rgb(61,79,207);stop-opacity:1"/><stop offset="1" style="stop-color:rgb(61,79,207);stop-opacity:1"/></linearGradient>
        <linearGradient id="_Linear3" x1="0" y1="0" x2="1" y2="0" gradientUnits="userSpaceOnUse" gradientTransform="matrix(1,0,0,-1,0,3.06111e-06)"><stop offset="0" style="stop-color:rgb(112,20,232);stop-opacity:1"/><stop offset="0.99" style="stop-color:rgb(61,79,207);stop-opacity:1"/><stop offset="1" style="stop-color:rgb(61,79,207);stop-opacity:1"/></linearGradient>
        <linearGradient id="_Linear4" x1="0" y1="0" x2="1" y2="0" gradientUnits="userSpaceOnUse" gradientTransform="matrix(1,0,0,-1,0,1.64333e-05)"><stop offset="0" style="stop-color:rgb(112,20,232);stop-opacity:1"/><stop offset="0.99" style="stop-color:rgb(61,79,207);stop-opacity:1"/><stop offset="1" style="stop-color:rgb(61,79,207);stop-opacity:1"/></linearGradient>
        <linearGradient id="_Linear5" x1="0" y1="0" x2="1" y2="0" gradientUnits="userSpaceOnUse" gradientTransform="matrix(1,0,0,-1,0,-1.07038e-05)"><stop offset="0" style="stop-color:rgb(112,20,232);stop-opacity:1"/><stop offset="0.99" style="stop-color:rgb(61,79,207);stop-opacity:1"/><stop offset="1" style="stop-color:rgb(61,79,207);stop-opacity:1"/></linearGradient>
        <linearGradient id="_Linear6" x1="0" y1="0" x2="1" y2="0" gradientUnits="userSpaceOnUse" gradientTransform="matrix(1,0,0,-1,0,4.20457e-06)"><stop offset="0" style="stop-color:rgb(112,20,232);stop-opacity:1"/><stop offset="0.99" style="stop-color:rgb(61,79,207);stop-opacity:1"/><stop offset="1" style="stop-color:rgb(61,79,207);stop-opacity:1"/></linearGradient>
        <linearGradient id="_Linear7" x1="0" y1="0" x2="1" y2="0" gradientUnits="userSpaceOnUse" gradientTransform="matrix(1,0,0,-1,0,1.86464e-05)"><stop offset="0" style="stop-color:rgb(112,20,232);stop-opacity:1"/><stop offset="0.99" style="stop-color:rgb(61,79,207);stop-opacity:1"/><stop offset="1" style="stop-color:rgb(61,79,207);stop-opacity:1"/></linearGradient>
        <linearGradient id="_Linear8" x1="0" y1="0" x2="1" y2="0" gradientUnits="userSpaceOnUse" gradientTransform="matrix(1,0,0,-1,0,2.79467e-05)"><stop offset="0" style="stop-color:rgb(112,20,232);stop-opacity:1"/><stop offset="0.99" style="stop-color:rgb(61,79,207);stop-opacity:1"/><stop offset="1" style="stop-color:rgb(61,79,207);stop-opacity:1"/></linearGradient>
        <linearGradient id="_Linear9" x1="0" y1="0" x2="1" y2="0" gradientUnits="userSpaceOnUse" gradientTransform="matrix(0,-1,-1,-0,0.50001,0.50001)"><stop offset="0" style="stop-color:rgb(112,20,232);stop-opacity:1"/><stop offset="0.99" style="stop-color:rgb(61,79,207);stop-opacity:1"/><stop offset="1" style="stop-color:rgb(61,79,207);stop-opacity:1"/></linearGradient>
        <linearGradient id="_Linear10" x1="0" y1="0" x2="1" y2="0" gradientUnits="userSpaceOnUse" gradientTransform="matrix(1,0,0,-1,0,1.46937e-05)"><stop offset="0" style="stop-color:rgb(112,20,232);stop-opacity:1"/><stop offset="0.99" style="stop-color:rgb(61,79,207);stop-opacity:1"/><stop offset="1" style="stop-color:rgb(61,79,207);stop-opacity:1"/></linearGradient>
        <linearGradient id="_Linear11" x1="0" y1="0" x2="1" y2="0" gradientUnits="userSpaceOnUse" gradientTransform="matrix(1,0,0,-1,0,1.59982e-05)"><stop offset="0" style="stop-color:rgb(112,20,232);stop-opacity:1"/><stop offset="0.99" style="stop-color:rgb(61,79,207);stop-opacity:1"/><stop offset="1" style="stop-color:rgb(61,79,207);stop-opacity:1"/></linearGradient>
        <linearGradient id="_Linear12" x1="0" y1="0" x2="1" y2="0" gradientUnits="userSpaceOnUse" gradientTransform="matrix(1,0,0,-1,0,1.72427e-06)"><stop offset="0" style="stop-color:rgb(112,20,232);stop-opacity:1"/><stop offset="0.99" style="stop-color:rgb(61,79,207);stop-opacity:1"/><stop offset="1" style="stop-color:rgb(61,79,207);stop-opacity:1"/></linearGradient>
        <linearGradient id="_Linear13" x1="0" y1="0" x2="1" y2="0" gradientUnits="userSpaceOnUse" gradientTransform="matrix(1,0,0,-1,0,-5.96817e-05)"><stop offset="0" style="stop-color:rgb(197,144,46);stop-opacity:1"/><stop offset="0.99" style="stop-color:rgb(220,183,54);stop-opacity:1"/><stop offset="1" style="stop-color:rgb(220,183,54);stop-opacity:1"/></linearGradient>
        <linearGradient id="_Linear14" x1="0" y1="0" x2="1" y2="0" gradientUnits="userSpaceOnUse" gradientTransform="matrix(1,0,0,-1,0,-0.000903323)"><stop offset="0" style="stop-color:rgb(197,144,46);stop-opacity:1"/><stop offset="0.99" style="stop-color:rgb(220,183,54);stop-opacity:1"/><stop offset="1" style="stop-color:rgb(220,183,54);stop-opacity:1"/></linearGradient>
        <linearGradient id="_Linear15" x1="0" y1="0" x2="1" y2="0" gradientUnits="userSpaceOnUse" gradientTransform="matrix(1,0,0,-1,0,-0.00714551)"><stop offset="0" style="stop-color:rgb(197,144,46);stop-opacity:1"/><stop offset="0.99" style="stop-color:rgb(220,183,54);stop-opacity:1"/><stop offset="1" style="stop-color:rgb(220,183,54);stop-opacity:1"/></linearGradient>
    </defs>
</svg>
